<?xml version="1.0" encoding="UTF-8"?>
<svg xmlns="http://www.w3.org/2000/svg" xmlns:xlink="http://www.w3.org/1999/xlink" width="500pt" height="500pt" viewBox="0 0 500 500" version="1.1">
<g id="surface1">
<path style=" stroke:none;fill-rule:nonzero;fill:#000000;fill-opacity:1;" d="M 406.746094 39.683594 L 89.285156 39.683594 C 61.886719 39.683594 39.683594 61.886719 39.683594 89.285156 L 39.683594 406.746094 C 39.683594 434.144531 61.886719 456.347656 89.285156 456.347656 L 406.746094 456.347656 C 434.144531 456.347656 456.347656 434.144531 456.347656 406.746094 L 456.347656 89.285156 C 456.347656 61.886719 434.144531 39.683594 406.746094 39.683594 Z M 416.667969 174.191406 C 416.667969 175.976563 414.882813 177.679688 413.101563 177.679688 L 392.640625 177.679688 L 301.300781 365.359375 C 300.410156 366.171875 299.519531 367.0625 297.734375 367.0625 C 295.914063 367.0625 295.023438 366.171875 294.132813 365.359375 L 250.691406 280.644531 L 203.683594 365.359375 C 202.792969 366.171875 201.902344 367.0625 200.117188 367.0625 C 198.296875 367.0625 197.40625 366.171875 196.515625 365.359375 L 104.28125 178.570313 L 82.929688 178.570313 C 81.148438 178.570313 79.363281 176.867188 79.363281 175.082031 L 79.363281 162.21875 C 79.363281 160.433594 81.148438 158.730469 82.929688 158.730469 L 155.164063 158.730469 C 156.949219 158.730469 158.730469 160.433594 158.730469 162.21875 L 158.730469 175.082031 C 158.730469 176.867188 156.949219 178.570313 155.164063 178.570313 L 141.484375 178.570313 L 205.464844 318.660156 L 239.179688 258.128906 L 196.515625 178.570313 L 182.332031 178.570313 C 180.546875 178.570313 178.765625 176.867188 178.765625 175.082031 L 178.765625 162.21875 C 178.765625 160.433594 180.546875 158.730469 182.332031 158.730469 L 244.449219 158.730469 C 246.234375 158.730469 248.015625 160.433594 248.015625 162.21875 L 248.015625 175.082031 C 248.015625 176.867188 246.234375 178.570313 244.449219 178.570313 L 232.050781 178.570313 L 256.039063 226.972656 L 285.335938 178.570313 L 271.421875 178.570313 C 269.640625 178.570313 267.855469 176.867188 267.855469 175.082031 L 267.855469 162.21875 C 267.855469 160.433594 269.640625 158.730469 271.421875 158.730469 L 323.816406 158.730469 C 325.597656 158.730469 327.382813 160.433594 327.382813 162.21875 L 327.382813 175.082031 C 327.382813 176.867188 325.597656 178.570313 323.816406 178.570313 L 310.136719 178.570313 L 267.546875 249.488281 L 302.191406 318.660156 L 368.769531 178.570313 L 350.789063 178.570313 C 349.003906 178.570313 347.222656 176.867188 347.222656 175.082031 L 347.222656 162.21875 C 347.222656 160.433594 349.003906 158.730469 350.789063 158.730469 L 413.101563 158.730469 C 414.882813 158.730469 416.667969 160.433594 416.667969 162.21875 Z "/>
</g>
</svg>
